<svg width="16" height="16" viewBox="0 0 16 16" fill="none" xmlns="http://www.w3.org/2000/svg">
<path d="M6.79297 12.7486V13.9639L6.49908 13.7265C6.45367 13.6898 5.37326 12.8127 4.27765 11.5548C2.7663 9.81961 2 8.26202 2 6.92545V6.79297C2 4.15012 4.15012 2 6.79297 2C9.43582 2 11.5859 4.15012 11.5859 6.79297V6.92545C11.5859 7.03769 11.58 7.15167 11.5692 7.26703L10.6319 6.41193C10.4399 4.46295 8.79156 2.93521 6.79297 2.93521C4.66583 2.93521 2.93521 4.66583 2.93521 6.79297V6.92545C2.93521 9.18405 5.84531 11.9183 6.79297 12.7486ZM9.66873 12.0768H11.0715V10.6741H9.66873V12.0768ZM6.79297 4.80563C7.88876 4.80563 8.7803 5.69717 8.7803 6.79297C8.7803 7.88876 7.88876 8.7803 6.79297 8.7803C5.69717 8.7803 4.80563 7.88876 4.80563 6.79297C4.80563 5.69717 5.69717 4.80563 6.79297 4.80563ZM6.79297 5.74084C6.2128 5.74084 5.74084 6.2128 5.74084 6.79297C5.74084 7.37305 6.2128 7.84509 6.79297 7.84509C7.37305 7.84509 7.84509 7.37305 7.84509 6.79297C7.84509 6.2128 7.37305 5.74084 6.79297 5.74084ZM13.3698 11.4414L13.1068 11.2015V12.7029C13.1068 13.402 12.538 13.9707 11.8389 13.9707H8.87799C8.17889 13.9707 7.61008 13.402 7.61008 12.7029V11.2015L7.34714 11.4414L6.71689 10.7505L10.3584 7.42834L14 10.7505L13.3698 11.4414ZM12.1716 10.3483L10.3584 8.69424L8.54529 10.3483V12.7028C8.54529 12.8863 8.69452 13.0355 8.87799 13.0355H11.8389C12.0224 13.0355 12.1716 12.8863 12.1716 12.7028V10.3483Z" fill="black"/>
</svg>
