<svg width="16" height="16" viewBox="0 0 16 16" fill="none" xmlns="http://www.w3.org/2000/svg">
<path d="M12.9453 4H3.05469C2.47433 4 2 4.47224 2 5.05469V11.3828C2 11.9655 2.47463 12.4375 3.05469 12.4375H12.9453C13.5257 12.4375 14 11.9653 14 11.3828V5.05469C14 4.4721 13.5254 4 12.9453 4ZM12.7834 4.70312C12.4424 5.04524 8.43699 9.06367 8.27244 9.22877C8.135 9.36662 7.86507 9.36672 7.72756 9.22877L3.21664 4.70312H12.7834ZM2.70312 11.2536V5.18395L5.72809 8.21875L2.70312 11.2536ZM3.21664 11.7344L6.22447 8.71675L7.22959 9.72515C7.64148 10.1384 8.35869 10.1382 8.77044 9.72515L9.77555 8.71677L12.7834 11.7344H3.21664ZM13.2969 11.2536L10.2719 8.21875L13.2969 5.18395V11.2536Z" fill="black"/>
</svg>
