<svg width="16" height="16" viewBox="0 0 16 16" fill="none" xmlns="http://www.w3.org/2000/svg">
<path d="M12.2637 2H3.73627C2.7789 2 2 2.7789 2 3.73627V12.2637C2 13.2211 2.7789 14 3.73627 14H12.2637C13.2211 14 14 13.2211 14 12.2637V3.73627C14 2.7789 13.2211 2 12.2637 2ZM12.2637 13.2913H3.73627C3.16965 13.2913 2.70866 12.8304 2.70866 12.2637V3.73627C2.70866 3.16965 3.16965 2.70866 3.73627 2.70866H12.2637C12.8304 2.70866 13.2913 3.16965 13.2913 3.73627V12.2637C13.2913 12.8304 12.8304 13.2913 12.2637 13.2913Z" fill="black"/>
<path d="M6.25054 6.99951H5.25049V10.9996H6.25054V6.99951Z" fill="black"/>
<path d="M5.75 6.5C6.16421 6.5 6.5 6.16421 6.5 5.75C6.5 5.33579 6.16421 5 5.75 5C5.33579 5 5 5.33579 5 5.75C5 6.16421 5.33579 6.5 5.75 6.5Z" fill="black"/>
<path d="M9.25059 7C8.88443 7 8.54544 7.10576 8.25054 7.27735V7.04154H7.25049V11H8.25054V8.99995C8.25054 8.44765 8.69828 8.00005 9.25059 8.00005C9.80289 8.00005 10.2505 8.44765 10.2505 8.99995V11H11.2505V8.99995C11.2505 7.89549 10.355 7 9.25059 7Z" fill="black"/>
</svg>
