<svg width="16" height="16" viewBox="0 0 16 16" fill="none" xmlns="http://www.w3.org/2000/svg">
<path d="M13.614 10.6376C13.5928 10.62 11.1972 8.9056 10.5472 9.018C10.2348 9.0732 10.056 9.286 9.698 9.7128C9.6404 9.7816 9.5016 9.946 9.3944 10.0632C9.16813 9.98948 8.94743 9.89965 8.734 9.7944C7.63221 9.258 6.742 8.36779 6.2056 7.266C6.10035 7.05257 6.01052 6.83187 5.9368 6.6056C6.0544 6.498 6.2192 6.3592 6.2896 6.3C6.714 5.944 6.9268 5.7652 6.982 5.4524C7.0952 4.8048 5.38 2.4072 5.3624 2.3856C5.28429 2.27482 5.18256 2.18277 5.06455 2.11609C4.94654 2.0494 4.8152 2.00975 4.68 2C3.9848 2 2 4.5744 2 5.0084C2 5.0336 2.0364 7.5952 5.1952 10.8084C8.4048 13.9636 10.9664 14 10.9916 14C11.4256 14 14 12.0152 14 11.32C13.9903 11.1848 13.9506 11.0534 13.8838 10.9354C13.8171 10.8173 13.7249 10.7156 13.614 10.6376V10.6376ZM10.9476 13.1976C10.598 13.1688 8.4484 12.8852 5.7608 10.2448C3.1068 7.5428 2.8304 5.3872 2.8028 5.0532C3.32711 4.23026 3.96032 3.48201 4.6852 2.8288C4.7012 2.8448 4.7224 2.8688 4.7496 2.9C5.30553 3.65889 5.78443 4.47131 6.1792 5.3252C6.05082 5.45435 5.91513 5.57602 5.7728 5.6896C5.55208 5.85778 5.34939 6.0484 5.168 6.2584L5.0708 6.3944L5.0996 6.5588C5.18425 6.92549 5.3139 7.28031 5.4856 7.6152C6.10075 8.87841 7.12151 9.89902 8.3848 10.514C8.71962 10.6859 9.07446 10.8157 9.4412 10.9004L9.6056 10.9292L9.7416 10.832C9.9524 10.6498 10.1438 10.4463 10.3128 10.2248C10.438 10.0752 10.6056 9.8756 10.6688 9.8192C11.5251 10.2136 12.3396 10.6931 13.1 11.2504C13.1332 11.2784 13.1564 11.3 13.172 11.314C12.5189 12.0391 11.7706 12.6725 10.9476 13.1968V13.1976Z" fill="black"/>
</svg>
